<svg width="40" height="32" viewBox="0 0 40 32" fill="none" xmlns="http://www.w3.org/2000/svg">
<path fill-rule="evenodd" clip-rule="evenodd" d="M35.7323 13.5327C34.824 14.0171 34.5972 13.9567 34.0557 14.1684C31.7496 15.2589 30.0437 18.9299 31.3663 21.6307C34.1596 27.3344 28.6893 33.6636 22.7277 31.6012C18.8004 30.2426 18.4895 27.0295 17.7819 26.0164C17.1286 25.0811 16.3634 24.3931 15.3305 23.9066C10.8786 21.8089 9.64961 25.9773 4.8115 23.8879C1.20876 22.3318 -0.46631 18.1137 1.07045 14.4667C3.62183 8.41174 11.9913 8.87347 14.2133 14.7055C14.894 16.485 15.5954 17.5213 17.4587 18.3271C22.5575 20.5301 28.2787 15.5411 25.6464 9.2884C25.1718 7.72354 25.2181 5.9877 25.9018 4.36424C27.4386 0.71711 31.6062 -0.978467 35.2094 0.577874C40.7948 2.98908 40.8826 10.7902 35.7323 13.5328" fill="#EA0775"/>
</svg>
